<svg width="12" height="12" viewBox="0 0 12 12" fill="none" xmlns="http://www.w3.org/2000/svg">
<g clip-path="url(#clip0_2011_350)">
<path d="M6 4.90918V7.23282H9.22908C9.08729 7.98009 8.66178 8.61284 8.02361 9.03829L9.97087 10.5492C11.1054 9.50197 11.76 7.96378 11.76 6.13651C11.76 5.71107 11.7218 5.30194 11.6509 4.90925L6 4.90918Z" fill="white"/>
<path d="M2.63731 7.14209L2.19813 7.47828L0.643555 8.68917C1.63082 10.6473 3.65431 12.0001 5.99975 12.0001C7.61971 12.0001 8.97787 11.4655 9.97062 10.5492L8.02336 9.03827C7.48881 9.39827 6.80699 9.61647 5.99975 9.61647C4.43976 9.61647 3.11434 8.56375 2.63976 7.14555L2.63731 7.14209Z" fill="white"/>
<path d="M0.64359 3.31079C0.234521 4.11803 0 5.02895 0 5.99984C0 6.97074 0.234521 7.88166 0.64359 8.6889C0.64359 8.69432 2.63999 7.13981 2.63999 7.13981C2.51999 6.77981 2.44906 6.39802 2.44906 5.99978C2.44906 5.60155 2.51999 5.21975 2.63999 4.85976L0.64359 3.31079Z" fill="white"/>
<path d="M5.99987 2.38909C6.88352 2.38909 7.66896 2.69454 8.29623 3.28363L10.0144 1.56547C8.97258 0.594583 7.61989 0 5.99987 0C3.65443 0 1.63082 1.34727 0.643555 3.31091L2.63989 4.86001C3.11441 3.44181 4.43988 2.38909 5.99987 2.38909Z" fill="white"/>
</g>
<defs>
<clipPath id="clip0_2011_350">
<rect width="12" height="12" fill="white"/>
</clipPath>
</defs>
</svg>
