<svg width="800" height="800" xmlns="http://www.w3.org/2000/svg">
  <defs>
    <radialGradient id="glow-light-1" cx="50%" cy="50%" r="50%">
      <stop offset="0%" stop-color="rgba(31, 170, 200, 0.25)"/>
      <stop offset="100%" stop-color="rgba(31, 170, 200, 0)"/>
    </radialGradient>
    <radialGradient id="glow-light-2" cx="50%" cy="50%" r="50%">
      <stop offset="0%" stop-color="rgba(31, 170, 200, 0.18)"/>
      <stop offset="100%" stop-color="rgba(31, 170, 200, 0)"/>
    </radialGradient>
  </defs>

  <!-- Ambient glow spots for depth -->
  <circle cx="220" cy="200" r="140" fill="url(#glow-light-1)"/>
  <circle cx="580" cy="480" r="120" fill="url(#glow-light-2)"/>
  <circle cx="180" cy="650" r="100" fill="url(#glow-light-2)"/>

  <!-- Network edges - thin connecting lines -->
  <line x1="120" y1="90" x2="260" y2="140" stroke="rgba(31, 170, 200, 0.22)" stroke-width="0.7"/>
  <line x1="260" y1="140" x2="340" y2="85" stroke="rgba(31, 170, 200, 0.18)" stroke-width="0.6"/>
  <line x1="260" y1="140" x2="400" y2="220" stroke="rgba(31, 170, 200, 0.25)" stroke-width="0.8"/>
  <line x1="400" y1="220" x2="540" y2="170" stroke="rgba(31, 170, 200, 0.18)" stroke-width="0.6"/>
  <line x1="400" y1="220" x2="460" y2="360" stroke="rgba(31, 170, 200, 0.20)" stroke-width="0.7"/>
  <line x1="120" y1="90" x2="90" y2="240" stroke="rgba(31, 170, 200, 0.18)" stroke-width="0.6"/>
  <line x1="90" y1="240" x2="190" y2="330" stroke="rgba(31, 170, 200, 0.20)" stroke-width="0.7"/>
  <line x1="190" y1="330" x2="320" y2="400" stroke="rgba(31, 170, 200, 0.18)" stroke-width="0.6"/>
  <line x1="320" y1="400" x2="460" y2="360" stroke="rgba(31, 170, 200, 0.25)" stroke-width="0.8"/>
  <line x1="460" y1="360" x2="600" y2="420" stroke="rgba(31, 170, 200, 0.18)" stroke-width="0.6"/>
  <line x1="600" y1="420" x2="680" y2="320" stroke="rgba(31, 170, 200, 0.18)" stroke-width="0.6"/>
  <line x1="540" y1="170" x2="680" y2="320" stroke="rgba(31, 170, 200, 0.20)" stroke-width="0.7"/>
  <line x1="320" y1="400" x2="270" y2="530" stroke="rgba(31, 170, 200, 0.20)" stroke-width="0.7"/>
  <line x1="270" y1="530" x2="420" y2="590" stroke="rgba(31, 170, 200, 0.20)" stroke-width="0.7"/>
  <line x1="420" y1="590" x2="580" y2="560" stroke="rgba(31, 170, 200, 0.25)" stroke-width="0.8"/>
  <line x1="580" y1="560" x2="600" y2="420" stroke="rgba(31, 170, 200, 0.18)" stroke-width="0.6"/>
  <line x1="270" y1="530" x2="150" y2="610" stroke="rgba(31, 170, 200, 0.18)" stroke-width="0.6"/>
  <line x1="150" y1="610" x2="250" y2="710" stroke="rgba(31, 170, 200, 0.20)" stroke-width="0.7"/>
  <line x1="420" y1="590" x2="500" y2="710" stroke="rgba(31, 170, 200, 0.20)" stroke-width="0.7"/>
  <line x1="580" y1="560" x2="720" y2="640" stroke="rgba(31, 170, 200, 0.18)" stroke-width="0.6"/>

  <!-- Organic curved paths for flow -->
  <path d="M0,380 C90,365 180,395 270,375 S450,355 540,385 S690,410 800,395" stroke="rgba(31, 170, 200, 0.14)" stroke-width="1" fill="none"/>
  <path d="M0,580 C110,565 230,590 350,575 S490,555 610,585 S740,605 800,590" stroke="rgba(31, 170, 200, 0.12)" stroke-width="0.8" fill="none"/>

  <!-- Network nodes - varying sizes for depth -->
  <circle cx="120" cy="90" r="2.3" fill="rgba(31, 170, 200, 0.45)"/>
  <circle cx="260" cy="140" r="2.8" fill="rgba(31, 170, 200, 0.55)"/>
  <circle cx="340" cy="85" r="1.7" fill="rgba(31, 170, 200, 0.38)"/>
  <circle cx="400" cy="220" r="2.6" fill="rgba(31, 170, 200, 0.50)"/>
  <circle cx="540" cy="170" r="1.9" fill="rgba(31, 170, 200, 0.42)"/>
  <circle cx="90" cy="240" r="1.5" fill="rgba(31, 170, 200, 0.35)"/>
  <circle cx="190" cy="330" r="2.1" fill="rgba(31, 170, 200, 0.45)"/>
  <circle cx="320" cy="400" r="2.8" fill="rgba(31, 170, 200, 0.55)"/>
  <circle cx="460" cy="360" r="2.4" fill="rgba(31, 170, 200, 0.50)"/>
  <circle cx="600" cy="420" r="1.9" fill="rgba(31, 170, 200, 0.42)"/>
  <circle cx="680" cy="320" r="1.7" fill="rgba(31, 170, 200, 0.38)"/>
  <circle cx="270" cy="530" r="2.3" fill="rgba(31, 170, 200, 0.45)"/>
  <circle cx="420" cy="590" r="2.1" fill="rgba(31, 170, 200, 0.50)"/>
  <circle cx="580" cy="560" r="2.6" fill="rgba(31, 170, 200, 0.55)"/>
  <circle cx="150" cy="610" r="1.5" fill="rgba(31, 170, 200, 0.35)"/>
  <circle cx="250" cy="710" r="1.9" fill="rgba(31, 170, 200, 0.42)"/>
  <circle cx="500" cy="710" r="2.1" fill="rgba(31, 170, 200, 0.45)"/>
  <circle cx="720" cy="640" r="1.7" fill="rgba(31, 170, 200, 0.38)"/>

  <!-- Micro dots for texture -->
  <circle cx="170" cy="120" r="0.8" fill="rgba(31, 170, 200, 0.28)"/>
  <circle cx="480" cy="280" r="0.8" fill="rgba(31, 170, 200, 0.25)"/>
  <circle cx="140" cy="460" r="0.8" fill="rgba(31, 170, 200, 0.28)"/>
  <circle cx="660" cy="500" r="0.8" fill="rgba(31, 170, 200, 0.25)"/>
  <circle cx="360" cy="660" r="0.8" fill="rgba(31, 170, 200, 0.28)"/>
  <circle cx="70" cy="400" r="0.6" fill="rgba(31, 170, 200, 0.22)"/>
  <circle cx="730" cy="190" r="0.6" fill="rgba(31, 170, 200, 0.22)"/>
</svg>
